<svg width="121" height="50" viewBox="0 0 121 50" fill="none" xmlns="http://www.w3.org/2000/svg">
<path d="M0.700989 47.7603L17.2406 0.056593C19.9082 -0.0523113 22.2063 -0.182452 24.4242 1.5136C26.8785 3.3907 27.9885 6.77544 26.9359 9.76269L17.912 36.4234H35.331C35.4229 36.4234 36.2203 36.0241 36.3629 35.9242C37.3438 35.2369 37.6955 33.6236 37.8988 32.5045H22.9087L28.181 17.0365L44.2118 16.9709C46.564 17.1861 47.9228 19.1117 47.4132 21.4542L39.809 44.1579C39.4445 45.5598 36.997 47.7603 35.6087 47.7603H0.700989Z" fill="#FF5824"></path>
<path d="M76.4464 29.9202C76.4464 26.1376 73.4054 23.0712 69.6543 23.0712C65.9031 23.0712 62.8622 26.1376 62.8622 29.9202C62.8622 33.7027 65.9031 36.7691 69.6543 36.7691C73.4054 36.7691 76.4464 33.7027 76.4464 29.9202ZM63.0212 9.13073V20.3279C66.9076 15.8511 73.7979 15.92 78.1518 19.6962C84.4165 25.1299 84.2121 35.0057 77.9455 40.3462C73.7379 43.9319 66.6738 43.8496 63.0212 39.5026V42.1621H56.6365V9.13073H63.0212Z" fill="#000369"></path>
<path d="M96.854 23.1629C92.9515 23.6612 91.0022 27.7988 91.6487 31.4194C92.8859 38.3488 102.915 38.5598 104.62 31.9738C106.005 26.6235 102.278 22.4701 96.854 23.1629ZM91.4747 39.6426V49.9999H85.2288V17.6684H91.4747V20.1878L93.8803 18.3446C98.4552 15.7627 104.08 16.8194 107.646 20.6058C115.742 29.2006 109.377 44.8821 96.9948 42.6839C94.4773 42.237 93.7353 41.2747 91.8919 39.8517C91.7521 39.7437 91.717 39.5816 91.4747 39.6426Z" fill="#000369"></path>
<path d="M119.928 17.6686H113.682V42.1621H119.928V17.6686Z" fill="#000369"></path>
<path d="M120.701 10.894C120.701 13.077 118.946 14.8466 116.781 14.8466C114.617 14.8466 112.862 13.077 112.862 10.894C112.862 8.71104 114.617 6.94135 116.781 6.94135C118.946 6.94135 120.701 8.71104 120.701 10.894Z" fill="#000369"></path>
</svg>