<svg xmlns="http://www.w3.org/2000/svg" viewBox="0 0 1755.5 410.8" xml:space="preserve"><path d="M1300.8 381.5H40c-22 0-40-18-40-40V127.9c0-22 18-40 40-40h1501.7c.4.2.8.5 1.2.7-4.3 5.7-4.3 13.9.5 19.6 4.7 5.7 12.8 7.1 19.1 3.8.6 2 1.6 3.8 3 5.4 4.1 4.9 10.6 6.7 16.3 5l8.7 10.3-1.7 12.8c-5.3-.7-10.8.7-15.1 4.4-4.7 3.9-7 9.4-6.9 14.9-69.8 51.3-138.8 101.8-176.6 129.3-39.1 28.6-45.1 32.8-50.1 36.9-5.1 4.1-9.2 8.3-12.1 12.3-3.1 4-4.9 8-5.9 11.7-1 3.6-1 6.7-1.2 10-4.6.3-9.1 2.1-13 5.3-3.6 2.9-6 6.9-7.1 11.2z" fill-rule="evenodd" clip-rule="evenodd" fill="#fffc00"></path><path d="M145.4 242.3c0 17.8-14.4 29.7-36.1 29.7H63.8v-99.8h45.7c18.1 0 30.1 10.7 30.1 26.7 0 8.2-4.3 15.1-12 19.8 11.1 4.2 17.8 12.7 17.8 23.6zm-57.8-31.4h16.2c6.9 0 11.5-3.8 11.5-9.6s-4.4-9.6-11.1-9.6H87.6v19.2zm33.4 30.4c0-6.5-5.3-10.9-12.8-10.9H87.6v22H108c7.7 0 13-4.5 13-11.1zm103.8-42.8V272h-22l-.4-7.7c-5.4 6.1-13.1 9-20.9 9-16.3 0-27.2-11.5-27.2-28.8v-46h22.9v42.6c0 7.5 4.9 12.5 12.4 12.5 7.4 0 12.3-5 12.3-12.5v-42.6h22.9zm61.6-1.4-1.5 21c-14 0-23.9 6.5-23.9 16v37.7h-22.9v-73.5h22.1l.4 8.9c5.9-6.3 14.9-10.1 25.8-10.1zm79.8 28.7v46.1h-22.9v-42.6c0-7.7-5.5-12.7-13.9-12.7-8.5 0-14 5-14 12.7v42.6h-22.9v-73.5h22.1l.3 8.2c5.8-6.5 14-9.6 22.6-9.6 17.3.1 28.7 11.6 28.7 28.8zm12.7-59h22.9V272h-22.9V166.8zm107.2 76.4h-50.4c1.3 7.5 5.4 12.1 14.2 12.1 6.2 0 11.3-2.6 14.8-6.7l17.8 8.6c-6.3 9.6-18.1 16-32.4 16-23.2 0-38.7-14.8-38.7-37.3 0-23.2 15-38.8 37.6-38.8 22.5 0 37.6 14.7 37.6 36.9 0 3.2-.2 6.7-.5 9.2zm-50.3-15.3h26.8c-1.5-8.4-5.9-12.8-13.6-12.8-7.5-.1-11.7 4.5-13.2 12.8zm58.8 72.7 2.3-18.5c1.6.8 3.6 1.2 5.9 1.2 5.7 0 8.1-3.6 10.9-8.9l2.2-4.6-30.6-71.5h25.1l17.3 46.8 15.8-46.8h24.9l-32.2 78.9c-6.5 15.9-13.6 25.6-29.5 25.6-4.7.1-9.1-.7-12.1-2.2zm169.5-45.2h-42.2l-6.6 16.6H590l42.1-99.8h22l41.8 99.8h-25.2l-6.6-16.6zm-7.7-19.6L643 201.6l-13.5 34.2h26.9zm112.4-37.3V272h-22l-.4-7.7c-5.4 6.1-13.1 9-20.9 9-16.3 0-27.2-11.5-27.2-28.8v-46h22.9v42.6c0 7.5 4.9 12.5 12.4 12.5 7.4 0 12.3-5 12.3-12.5v-42.6h22.9zm9.5 36.6c0-22.8 16.2-38 40.6-38 9.8 0 18.9 3.4 25.7 8.8l-12.9 15.5c-3.1-2.8-7-4.7-12.4-4.7-10.4 0-17.1 7.4-17.1 18.5s6.6 18.5 17.1 18.5c6.3 0 11.2-1.8 14.8-5.9L847 263c-7.1 7-17.4 10.4-28.7 10.4-24-.1-40-15.4-40-38.3zm124.3 16.2v18.3c-5.8 2.6-12.8 3.6-19.1 3.6-14.3 0-24-9.8-24-24.5v-31.5h-11.7v-18.7h11.7v-21.6h22.9v21.6h19.1v18.7h-19.1v26.7c0 5.8 3.5 9.7 8.5 9.7 3.8 0 7.8-.7 11.7-2.3zm7-74.5c0-7.7 5.7-13.2 13.3-13.2s13.2 5.5 13.2 13.2-5.5 13.2-13.2 13.2-13.3-5.6-13.3-13.2zm1.7 21.7h22.9V272h-22.9v-73.5zm32.5 36.6c0-22.8 16.2-38 40.4-38 23.9 0 40 15.2 40 38 0 22.9-16.2 38.2-40 38.2-24.2 0-40.4-15.3-40.4-38.2zm56.8 0c0-11.1-6.6-18.5-16.4-18.5-10 0-16.6 7.4-16.6 18.5s6.6 18.5 16.6 18.5c9.8 0 16.4-7.4 16.4-18.5zm106.9-9.3v46.1h-22.9v-42.6c0-7.7-5.5-12.7-13.9-12.7-8.5 0-14 5-14 12.7v42.6h-22.9v-73.5h22.1l.3 8.2c5.8-6.5 14-9.6 22.6-9.6 17.2.1 28.7 11.6 28.7 28.8zm83.4 17.4h-50.4c1.3 7.5 5.4 12.1 14.2 12.1 6.2 0 11.3-2.6 14.8-6.7l17.8 8.6c-6.3 9.6-18.1 16-32.4 16-23.2 0-38.7-14.8-38.7-37.3 0-23.2 15-38.8 37.6-38.8 22.5 0 37.6 14.7 37.6 36.9.1 3.2-.2 6.7-.5 9.2zm-50.2-15.3h26.8c-1.5-8.4-5.9-12.8-13.6-12.8-7.6-.1-11.8 4.5-13.2 12.8zm130.9 15.3h-50.4c1.3 7.5 5.4 12.1 14.2 12.1 6.2 0 11.3-2.6 14.8-6.7l17.8 8.6c-6.3 9.6-18.1 16-32.4 16-23.2 0-38.7-14.8-38.7-37.3 0-23.2 15-38.8 37.6-38.8 22.5 0 37.6 14.7 37.6 36.9 0 3.2-.3 6.7-.5 9.2zm-50.3-15.3h26.8c-1.5-8.4-5.9-12.8-13.6-12.8-7.6-.1-11.7 4.5-13.2 12.8zm108.2-30.8-1.5 21c-14 0-23.9 6.5-23.9 16v37.7h-22.9v-73.5h22.1l.4 8.9c5.9-6.3 14.9-10.1 25.8-10.1zm2.3 67 8.6-13.9c7.3 3.9 14 5.3 21 5.3 4.9 0 8.4-1.6 8.4-4.7 0-3.2-4.4-4.9-11.1-6.6l-5.3-1.3c-12.8-3.1-21.6-8-21.6-20 0-15.5 12.1-25.7 30.5-25.7 11.7 0 21.7 2.6 29.1 7.7l-9.6 14.8c-5.8-3.1-11.7-4.6-18.1-4.6-5.1 0-8.6 1.5-8.6 4.2 0 3 4 4.4 9.6 5.9l5.1 1.3c13.3 3.4 23.2 9.3 23.2 22.6 0 14.6-12.9 24.1-32.1 24.1-11.4.1-21.7-2.9-29.1-9.1z"></path><path d="M1606 166.1c-.2 5.3-2.5 10.4-6.9 14.2-4.6 3.9-10.4 5.3-15.8 4.2-62.2 60.4-123.5 119.9-157.1 152.6-34.6 33.7-39.7 39-44.7 43.3-4.9 4.3-9.7 7.6-14.1 9.9-4.5 2.3-8.8 3.4-12.6 3.8-3.6.3-6.8-.1-10-.6-1.2 4.5-3.6 8.7-7.4 12-9.5 8-23.8 6.9-31.9-2.7-8-9.5-6.9-23.8 2.7-31.9 3.8-3.2 8.4-5 13-5.3.2-3.3.2-6.4 1.2-10 .9-3.7 2.8-7.6 5.9-11.7 3-4 7.1-8.2 12.1-12.3 5-4.1 11.1-8.3 50.1-36.9 37.9-27.6 106.8-78.1 176.6-129.3-.1-5.5 2.2-11 6.9-14.9 4.3-3.7 9.8-5.1 15.1-4.4l1.7-12.8-8.7-10.3c-5.7 1.7-12.2 0-16.3-5-1.4-1.5-2.3-3.4-3-5.4-6.4 3.3-14.4 1.9-19.1-3.8-4.8-5.6-4.8-13.9-.5-19.6-1.8-.9-3.5-2.2-4.9-3.7-5.5-6.7-4.8-16.6 1.9-22.1 23.5-19.9 47-39.8 70.6-59.7 6.5-5.6 16.5-4.7 22.1 1.8 1.3 1.7 2.4 3.5 3 5.5 6.3-3.3 14.3-1.8 19.1 3.8 4.8 5.6 4.8 13.8.5 19.6 1.8.9 3.4 2.1 4.8 3.8 4.2 4.9 4.8 11.6 2.1 17l45.5 53.7c5.7-1.6 12.3.1 16.3 5 1.4 1.6 2.4 3.5 3 5.4 6.4-3.2 14.4-1.9 19.1 3.8 4.8 5.8 4.8 13.9.5 19.6 1.8 1 3.5 2.2 4.9 3.8 5.5 6.6 4.7 16.5-1.9 22.1-23.5 19.8-47 39.8-70.7 59.6-6.5 5.6-16.5 4.7-22.1-1.8-1.3-1.7-2.4-3.5-3-5.4-6.3 3.2-14.3 1.8-19.1-3.8-4.8-5.7-4.8-13.9-.5-19.6-1.8-1-3.5-2.2-4.8-3.9-4.1-4.8-4.8-11.6-2.1-16.9l-8.7-10.3-12.8-.4z" fill-rule="evenodd" clip-rule="evenodd"></path><path d="M1301.3 381.5H40c-22 0-40-18-40-40V127.9c0-22 18-40 40-40h1501c.7.5 1.4 1 2.2 1.3-4.3 5.7-4.3 13.9.5 19.6.3.4.7.7 1 1.1H40c-9.9 0-18 8.1-18 18v213.5c0 9.9 8.1 18 18 18h1281.7c-.3 2.1-.3 4.1-.4 6.1-4.6.3-9.1 2.1-13 5.3-3.5 2.9-5.8 6.7-7 10.7z"></path></svg>