<?xml version="1.0"?>
<svg xmlns:dc="http://purl.org/dc/elements/1.1/" xmlns:cc="http://creativecommons.org/ns#" xmlns:rdf="http://www.w3.org/1999/02/22-rdf-syntax-ns#" xmlns:svg="http://www.w3.org/2000/svg" xmlns="http://www.w3.org/2000/svg" xmlns:sodipodi="http://sodipodi.sourceforge.net/DTD/sodipodi-0.dtd" xmlns:inkscape="http://www.inkscape.org/namespaces/inkscape" version="1.1" id="svg2" xml:space="preserve" width="220" height="46.299759" viewBox="0 0 219.99999 46.299759">
  <namedview showgrid="false" id="namedview70" guidetolerance="10" gridtolerance="10" objecttolerance="10" borderopacity="1" bordercolor="#666666" pagecolor="#ffffff"></namedview>
  <metadata id="metadata8">
    <RDF>
      <Work>
        <format>image/svg+xml</format>
        <type></type>
        <title></title>
      </Work>
    </RDF>
  </metadata>
  <defs id="defs6"></defs>
  <g id="g10" transform="matrix(0.36606578,0,0,-0.36606578,-135.02263,565.40691)">
    <g id="g12" transform="scale(0.1)">
      <path d="m 5397.84,14243.2 9.69,27.3 h 46.21 l 9.24,-27.3 h 21.86 v 1.8 l -38.77,110.9 h -26.37 l -43.05,-110.9 v -1.8 z m 16,44.8 17.36,48.5 16.23,-48.5 z m 151.92,-46.6 c 36.97,0 51.82,23 51.82,49.3 v 65.2 h -21.81 v -63.4 c 0,-19.4 -6.34,-33.6 -28.2,-33.6 -22.99,0 -30.01,14.2 -30.01,33.6 v 63.4 h -22.04 v -65.2 c 0,-26.3 14.18,-49.3 50.24,-49.3 m 150.55,0 c 15.11,0 24.8,3.6 34.49,7.8 v 18.5 h -1.81 c -6.08,-3.3 -16.68,-8.8 -32.68,-8.8 -24.57,0 -40.35,13.3 -40.35,40.6 0,24.6 14.88,40.6 40.35,40.6 13.3,0 22.99,-3.6 31.79,-7.2 h 1.8 v 18.5 c -6.32,2.7 -16.01,6.3 -33.59,6.3 -37.87,0 -63.29,-23.9 -63.29,-58.2 0,-34.3 21.14,-58.1 63.29,-58.1 m 115.63,1.8 v 95.1 h 38.77 v 17.6 h -101.18 v -17.6 h 40.57 v -95.1 z m 91.07,112.7 h -22.07 v -112.7 h 22.07 z m 96.27,-114.5 c 40.35,0 60.61,28.1 60.61,58.1 0,30 -20.26,58.2 -60.61,58.2 -40.59,0 -60.86,-28.2 -60.86,-58.2 0,-30 20.27,-58.1 60.86,-58.1 m 0,17.5 c -25.72,0 -37.89,17.6 -37.89,40.6 0,23 12.17,40.6 37.89,40.6 25.47,0 37.87,-17.6 37.87,-40.6 0,-23 -12.4,-40.6 -37.87,-40.6 m 201.72,-15.7 v 112.7 h -21.17 v -80 l -63.36,80 h -19.37 v -112.7 h 21.17 v 79.1 l 63.36,-79.1 z m 128.7,0 v 17.5 h -58.83 v 31.8 h 49.14 v 17.6 h -49.14 v 28.2 h 56.35 v 17.6 h -78.42 v -112.7 z m 121.72,0 v 17.5 h -58.83 v 31.8 h 49.14 v 17.6 h -49.14 v 28.2 h 56.35 v 17.6 h -78.42 v -112.7 z m 62.89,0 v 39.7 h 22.79 l 29.08,-39.7 h 23.86 v 1.8 l -34.46,44.8 c 15.08,6.1 23.87,18.5 23.87,32.7 0,21.9 -15.07,33.4 -48.46,33.4 h -38.75 v -112.7 z m 0,57.2 v 37.9 h 15.78 c 19.41,0 27.3,-4.5 27.3,-16.7 0,-10.6 -6.09,-16.9 -13.98,-21.2 z m 130.28,-59 c 30.91,0 48.47,12.4 48.47,33.5 0,19.4 -11.25,28 -28.16,32.5 l -19.4,5.4 c -9.47,2.5 -15.78,5.2 -15.78,14.9 0,9.7 8.79,12.4 25.49,12.4 8.79,0 22.99,-2.7 31.76,-6.3 h 1.8 v 18.5 c -8.09,2.7 -22.06,5.4 -33.56,5.4 -28.2,0 -47.56,-9.7 -47.56,-30.9 0,-15.8 9.47,-26.2 26.35,-30.9 l 19.41,-5.2 c 12.17,-4 17.58,-6.1 17.58,-15.8 0,-11.4 -7.89,-16 -26.4,-16 -11.49,0 -24.57,3.6 -36.04,7.9 h -1.8 v -18.5 c 11.5,-4.2 25.67,-6.9 37.84,-6.9 m 154.1,23.1 32.45,32.4 -32.45,32.4 -32.36,-32.4 z m 157.46,-21.3 v 95.1 h 38.77 v 17.6 h -101.18 v -17.6 h 40.57 v -95.1 z m 169.28,0 v 112.7 h -21.84 v -44 h -56.38 v 44 h -22.06 v -112.7 h 22.06 v 51.2 h 56.38 v -51.2 z m 128.71,0 v 17.5 h -58.83 v 31.8 h 49.14 v 17.6 h -49.14 v 28.2 h 56.35 v 17.6 h -78.42 v -112.7 z m 195.2,0 v 112.7 h -21.84 v -44 h -56.37 v 44 h -22.07 v -112.7 h 22.07 v 51.2 h 56.37 v -51.2 z m 51.39,0 9.69,27.3 h 46.22 l 9.23,-27.3 h 21.87 v 1.8 l -38.77,110.9 h -26.38 l -43.04,-110.9 v -1.8 z m 16,44.8 17.37,48.5 16.22,-48.5 z m 153.96,-46.6 c 19.4,0 31.78,4.5 43.25,9.7 v 43.9 h -22.04 v -32.9 c -6.08,-2 -12.87,-3.2 -21.21,-3.2 -26.38,0 -41.27,13.3 -41.27,41.5 0,24.6 17.6,39.7 43.97,39.7 14,0 22.11,-2.7 34.26,-7.2 h 1.81 v 18.5 c -10.6,3.6 -19.37,6.3 -36.07,6.3 -36.96,0 -66.92,-23 -66.92,-57.3 0,-34.2 19.36,-59 64.22,-59 m 135.92,0 c 36.97,0 51.82,23 51.82,49.3 v 65.2 h -21.82 v -63.4 c 0,-19.4 -6.31,-33.6 -28.2,-33.6 -22.99,0 -30,14.2 -30,33.6 v 63.4 h -22.05 v -65.2 c 0,-26.3 14.18,-49.3 50.25,-49.3 m 178.73,1.8 v 17.5 h -58.84 v 31.8 h 49.14 v 17.6 h -49.14 v 28.2 h 56.36 v 17.6 h -78.4 v -112.7 z m 111.05,21.3 32.46,32.4 -32.46,32.4 -32.37,-32.4 z m 116.22,-21.3 9.69,27.3 h 46.21 l 9.24,-27.3 h 21.86 v 1.8 l -38.77,110.9 h -26.36 l -43.06,-110.9 v -1.8 z m 16,44.8 17.36,48.5 16.23,-48.5 z m 204.2,-44.8 v 112.7 h -21.14 v -80 l -63.38,80 h -19.35 v -112.7 h 21.14 v 79.1 l 63.36,-79.1 z m 151.7,0 v 112.7 h -21.17 v -80 l -63.36,80 h -19.36 v -112.7 h 21.16 v 79.1 l 63.36,-79.1 z m 98.07,-1.8 c 40.34,0 60.61,28.1 60.61,58.1 0,30 -20.27,58.2 -60.61,58.2 -40.59,0 -60.86,-28.2 -60.86,-58.2 0,-30 20.27,-58.1 60.86,-58.1 m 0,17.5 c -25.72,0 -37.89,17.6 -37.89,40.6 0,23 12.17,40.6 37.89,40.6 25.47,0 37.87,-17.6 37.87,-40.6 0,-23 -12.4,-40.6 -37.87,-40.6 m 217.94,-15.7 v 114.5 h -8.76 l -53.65,-19.4 v -17.6 h 1.58 l 39.67,14 v -91.5 z m 122.2,-1.8 c 29.07,0 53.62,12.4 53.62,36 0,18.3 -11.92,25.5 -25.9,30.9 l 4.06,2.7 c 9.47,6.1 20.94,14.9 20.94,28.2 0,21.9 -20.94,32.4 -50.02,32.4 -25.72,0 -49.36,-11.2 -49.36,-33.3 0,-14.2 8.11,-22.6 22.07,-28.6 l -5.41,-3.2 c -9.67,-6.1 -21.17,-14.9 -21.17,-31.6 0,-23 21.17,-33.5 51.17,-33.5 z m -30,35.1 c 0,12.4 6.08,16.9 16.68,24.8 l 4.28,2.9 22.12,-7.4 c 10.59,-3.4 18.7,-8.8 18.7,-19.4 0,-12.2 -10.59,-19.4 -31.78,-19.4 -15.8,0 -30,4.5 -30,18.5 m 42.85,37.2 -19.86,7 c -10.6,4.3 -18.49,7 -18.49,18.5 0,12.2 13.08,16.7 28.2,16.7 19.39,0 29.08,-6.1 29.08,-16.7 0,-11.5 -8.11,-16 -16,-23 z m 148.52,-70.5 v 114.5 h -8.79 l -53.63,-19.4 v -17.6 h 1.58 l 39.67,14 v -91.5 z m 142.91,0 v 114.5 h -8.79 l -53.63,-19.4 v -17.6 h 1.58 l 39.67,14 v -91.5 H 9347" style="fill:#84621b;fill-opacity:1;fill-rule:nonzero;stroke:none" id="path14"></path>
      <path d="m 3688.48,14813.1 632.38,-632.4 632.38,632.4 -632.38,632.4 -632.38,-632.4" style="fill:#243971;fill-opacity:1;fill-rule:nonzero;stroke:none" id="path16"></path>
      <path d="m 4161.8,14582.4 166.35,370.8 h 11.36 c 25.16,0 38.14,9.8 38.14,34.9 v 6.5 h -123.34 c -25.97,0 -44.63,-9.7 -44.63,-34.9 v -6.5 h 56.8 v -6.4 l -116.85,-284.9 -107.92,284.9 v 6.4 h 28.4 c 25.15,0 38.14,9.8 38.14,34.9 v 6.5 h -155.8 c -25.16,0 -43.82,-9.7 -43.82,-34.9 v -6.5 h 44.63 l 145.25,-370.8 h 63.29" style="fill:#ffffff;fill-opacity:1;fill-rule:nonzero;stroke:none" id="path18"></path>
      <path d="m 4242.45,14630.3 0.09,-41.4 h 111.08 c 25.16,0 43.82,9.7 43.82,34.9 v 6.5 h -154.99" style="fill:#ffffff;fill-opacity:1;fill-rule:nonzero;stroke:none" id="path20"></path>
      <path d="m 4549.57,14775.5 v -145.2 h -21.91 c -25.97,0 -41.39,-9.7 -41.39,-34.9 v -6.5 h 174.47 c 25.15,0 43.82,9.7 43.82,34.9 v 6.5 h -73.03 v 322.9 h 29.21 c 25.15,0 43.82,9.8 43.82,34.9 v 6.5 h -176.9 c -25.97,0 -41.39,-9.7 -41.39,-34.9 v -6.5 h 63.3 v -133 h -224.78 v -44.8 l 224.78,0.1" style="fill:#ffffff;fill-opacity:1;fill-rule:nonzero;stroke:none" id="path22"></path>
      <path d="m 9676.48,14915.2 h 6.51 v 66.5 c -29.27,9.8 -79.54,19.5 -120.92,19.5 -101.44,0 -171.23,-34.8 -171.27,-111.1 0.04,-56.9 34.18,-94.2 94.97,-111.2 l 69.82,-18.7 c 43.8,-14.5 63.3,-21.9 63.25,-56.8 0,-41.4 -28.33,-57.6 -94.92,-57.6 -41.38,0 -88.43,13 -129.8,28.4 h -6.52 l 0.04,-66.5 c 41.37,-15.4 92.44,-25.2 136.28,-25.2 111.17,0 174.44,44.6 174.44,120.9 0,69.8 -40.54,100.7 -101.38,116.9 l -69.84,19.4 c -34.03,9 -56.79,18.7 -56.75,53.6 -0.04,34.9 31.63,44.7 91.68,44.7 31.64,-0.1 82.76,-9.8 114.41,-22.8 M 9179.06,14589 h 79.49 v 405.7 h -79.49 z m -165.5,171.2 -0.05,234.5 h -78.71 l 0.05,-228 c 0,-69.8 -22.77,-120.9 -101.44,-120.9 -82.81,0 -107.95,51.1 -107.95,120.9 v 228 h -79.56 l 0.04,-234.5 c 0,-94.9 51.13,-177.7 180.96,-177.7 133.09,0 186.61,82.8 186.66,177.7 M 8401.69,14589 h 78.7 l 0.02,405.8 -78.76,-0.1 0.04,-158.2 h -64.71 l -57.28,57.2 -57.22,-57.2 h -65.91 l -0.05,158.2 h -79.5 V 14589 h 79.5 v 184.2 h 68.44 l 54.79,-54.8 54.78,54.8 h 67.12 z m -779.09,0 h 291.32 v 63.3 h -211.78 v 114.4 H 7879 l 0.05,63.4 h -176.91 v 101.4 l 202.83,-0.1 0.04,63.3 H 7622.6 Z m -165.5,171.2 -0.03,234.5 h -78.72 l 0.04,-228 c 0,-69.8 -22.76,-120.9 -101.42,-120.9 -82.82,0 -107.95,51.1 -107.95,120.9 l 0.04,228 h -79.59 l 0.03,-234.5 c 0,-94.9 51.12,-177.7 180.95,-177.7 133.08,0 186.65,82.8 186.65,177.7 m -495.01,38.1 c 0,116.9 -73.02,196.4 -253.96,196.4 h -133.1 l 0.04,-405.7 h 142.78 c 186.61,0 244.29,101.4 244.24,209.3 m -82.77,0 c 0,-91.6 -38.11,-146 -167.94,-146 h -56.83 l 0.04,279.1 43.8,0.1 c 133.08,-0.1 180.93,-47.9 180.93,-133.2 M 6333.21,14589 h 69.81 v 405.7 h -76.28 v -288 l -228.02,288 h -69.81 V 14589 h 76.3 v 284.8 z m -742.49,0 h 291.32 v 63.3 h -211.79 l 0.04,114.4 h 176.88 v 63.3 h -176.88 v 101.4 h 202.87 l -0.05,63.3 h -282.34 z m -273.43,0 158.23,399.2 v 6.5 h -73.03 l -126.61,-335.9 -123.32,335.9 h -82.77 v -6.5 l 152.55,-399.2 h 94.95" style="fill:#243971;fill-opacity:1;fill-rule:nonzero;stroke:none" id="path24"></path>
    </g>
  </g>
</svg>