<svg xmlns="http://www.w3.org/2000/svg" viewBox="-1.2 -1 23.4 24.2"><defs><linearGradient id="amgm" x1="0" y1="0" x2="1" y2="1"><stop offset="0" stop-color="#00AAFF"></stop><stop offset="1" stop-color="#0057FF"></stop></linearGradient></defs><path d="M172.33,104.72l9.51-4.19-.35-.69h0a.66.66,0,0,1-.08-.34.76.76,0,0,1,.43-.69h0l2.31-1h0a.81.81,0,0,1,.31-.06.76.76,0,0,1,.67.4h0l0,0,2.52,5h0a.77.77,0,0,1,.08.34.75.75,0,0,1-.48.7h0l-2.28,1h0a.78.78,0,0,1-.31.07.75.75,0,0,1-.61-.31,2.69,2.69,0,0,1-.16-.29l-.3-.61-7.83,3.45c-.27.12-1.5.6-2.08.82a1.86,1.86,0,0,1-1.31.14l-.23-.1h-.47v0h0v0h0v0h0v0h0v0h0v0h0a1.43,1.43,0,0,1-.08-.22h0a.06.06,0,0,0,0,0,2.56,2.56,0,0,1,.43-1.71l.07-.15.43-.86ZM181,97.45l2.68-1.17h0a.54.54,0,0,1,.22,0,.54.54,0,0,1,.54.54.53.53,0,0,1-.33.5h0l-2.71,1.19h0a.54.54,0,0,1-.22,0,.55.55,0,0,1-.55-.54A.55.55,0,0,1,181,97.45Zm4.14,8.29,2.69-1.17h0a.55.55,0,0,1,.76.5.55.55,0,0,1-.32.5h0l-2.7,1.19h0a.55.55,0,1,1-.41-1Z" transform="translate(-167.63 -86.33)" fill="url(#amgm)"></path><path d="M168.63,106.87l3.55,1.55a1.59,1.59,0,0,1-.68-.68,1,1,0,0,1-.09-.24s0,0,0,0a2.56,2.56,0,0,1,.43-1.71l.07-.15,1.17-2.34,5.07-10.15,1.52,3.05,0,0a.33.33,0,0,0,.06.1.76.76,0,0,0,.61.3.77.77,0,0,0,.34-.08h0l2.26-1h0a.76.76,0,0,0,.47-.7.77.77,0,0,0-.08-.34l-3.06-6.11-.35-.71-.15-.29a1.86,1.86,0,0,0-3.37.12l-4.09,8.18L168.15,104c-.12.23-.29.55-.39.79a1.44,1.44,0,0,0-.13.62,1.53,1.53,0,0,0,.59,1.21,2.1,2.1,0,0,0,.41.24" transform="translate(-167.63 -86.33)" fill="#0E2C73"></path></svg>