<svg id="Layer_1" data-name="Layer 1" xmlns="http://www.w3.org/2000/svg" xmlns:xlink="http://www.w3.org/1999/xlink" viewBox="0 0 99.19 22.34"><title>artisio r logo homepage</title><path d="M172.33,104.72l9.51-4.19-.35-.69h0a.66.66,0,0,1-.08-.34.76.76,0,0,1,.43-.69h0l2.31-1h0a.81.81,0,0,1,.31-.06.76.76,0,0,1,.67.4h0l0,0,2.52,5h0a.77.77,0,0,1,.08.34.75.75,0,0,1-.48.7h0l-2.28,1h0a.78.78,0,0,1-.31.07.75.75,0,0,1-.61-.31,2.69,2.69,0,0,1-.16-.29l-.3-.61-7.83,3.45c-.27.12-1.5.6-2.08.82a1.86,1.86,0,0,1-1.31.14l-.23-.1h-.47v0h0v0h0v0h0v0h0v0h0v0h0a1.43,1.43,0,0,1-.08-.22h0a.06.06,0,0,0,0,0,2.56,2.56,0,0,1,.43-1.71l.07-.15.43-.86ZM181,97.45l2.68-1.17h0a.54.54,0,0,1,.22,0,.54.54,0,0,1,.54.54.53.53,0,0,1-.33.5h0l-2.71,1.19h0a.54.54,0,0,1-.22,0,.55.55,0,0,1-.55-.54A.55.55,0,0,1,181,97.45Zm4.14,8.29,2.69-1.17h0a.55.55,0,0,1,.76.5.55.55,0,0,1-.32.5h0l-2.7,1.19h0a.55.55,0,1,1-.41-1Z" transform="translate(-167.63 -86.33)" fill="#FFFFFF"></path><path class="cls-2" fill="#FFFFFF" d="M198.38,102.53l1.35-3.36,1.35,3.36Zm4.39,4.22h3.08l-4.64-10.48h-2.92l-4.63,10.48h3l.82-2h4.43Z" transform="translate(-167.63 -86.33)"></path><path class="cls-2" fill="#FFFFFF" d="M214.19,100.15c0,1-.61,1.52-1.84,1.52H210.7V98.6h1.65c1.23,0,1.84.57,1.84,1.55m0,6.6h3.18l-2.26-3.29a3.49,3.49,0,0,0,2.05-3.31c0-2.4-1.8-3.88-4.66-3.88h-4.79v10.48h3V104h1.62Z" transform="translate(-167.63 -86.33)"></path><polygon class="cls-2" fill="#FFFFFF" points="54.32 20.43 57.28 20.43 57.28 12.29 60.49 12.29 60.49 9.94 51.1 9.94 51.1 12.29 54.32 12.29 54.32 20.43"></polygon><rect class="cls-2" fill="#FFFFFF" x="62.64" y="9.94" width="2.97" height="10.49"></rect><path class="cls-2" fill="#FFFFFF" d="M240.07,107c3.12,0,4.65-1.56,4.65-3.38,0-3.86-5.95-2.66-5.95-4.27,0-.53.45-1,1.69-1a6.11,6.11,0,0,1,2.91.82l.91-2.21a7.82,7.82,0,0,0-3.8-.91c-3.12,0-4.65,1.53-4.65,3.4,0,3.9,6,2.69,6,4.34,0,.51-.47.86-1.7.86a6.63,6.63,0,0,1-3.46-1l-1,2.18a8.26,8.26,0,0,0,4.42,1.15" transform="translate(-167.63 -86.33)"></path><rect class="cls-2" fill="#FFFFFF" x="79.5" y="9.94" width="2.97" height="10.49"></rect><path class="cls-2" fill="#FFFFFF" d="M258.53,104.51a3,3,0,1,1,2.83-3,2.81,2.81,0,0,1-2.83,3m0,2.45c3.35,0,5.83-2.3,5.83-5.45s-2.48-5.45-5.83-5.45-5.83,2.3-5.83,5.45S255.17,107,258.53,107Z" transform="translate(-167.63 -86.33)"></path><path class="cls-5" fill="#FFFFFF" d="M168.63,106.87l3.55,1.55a1.59,1.59,0,0,1-.68-.68,1,1,0,0,1-.09-.24s0,0,0,0a2.56,2.56,0,0,1,.43-1.71l.07-.15,1.17-2.34,5.07-10.15,1.52,3.05,0,0a.33.33,0,0,0,.06.1.76.76,0,0,0,.61.3.77.77,0,0,0,.34-.08h0l2.26-1h0a.76.76,0,0,0,.47-.7.77.77,0,0,0-.08-.34l-3.06-6.11-.35-.71-.15-.29a1.86,1.86,0,0,0-3.37.12l-4.09,8.18L168.15,104c-.12.23-.29.55-.39.79a1.44,1.44,0,0,0-.13.62,1.53,1.53,0,0,0,.59,1.21,2.1,2.1,0,0,0,.41.24" transform="translate(-167.63 -86.33)"></path><path class="cls-2" fill="#FFFFFF" d="M265,95.52v-.61h.33c.24,0,.39.11.39.3s-.15.31-.39.31Zm1.08-.31c0-.36-.27-.6-.73-.6h-.72v1.73H265v-.52h.39l.34.52h.38l-.39-.59A.54.54,0,0,0,266.06,95.21Zm-.81,1.58a1.32,1.32,0,1,1,1.31-1.32A1.3,1.3,0,0,1,265.25,96.79Zm0-2.87a1.56,1.56,0,1,0,1.55,1.55A1.51,1.51,0,0,0,265.26,93.92Z" transform="translate(-167.63 -86.33)"></path></svg>