<?xml version="1.0"?> <svg xmlns="http://www.w3.org/2000/svg" version="1.1" viewBox="0 0 240 63.5" xml:space="preserve">  <path class="st0" d="m223.9 18.7c0 1.8-1.4 3.2-3.2 3.2s-3.2-1.4-3.2-3.2 1.4-3.2 3.2-3.2 3.2 1.4 3.2 3.2"></path> <path class="st0" d="m231.8 24.3c0 1.8-1.4 3.2-3.2 3.2s-3.2-1.4-3.2-3.2 1.4-3.2 3.2-3.2c1.8-0.1 3.2 1.4 3.2 3.2"></path> <path class="st0" d="m240 30c0 1.8-1.4 3.2-3.2 3.2s-3.2-1.4-3.2-3.2 1.4-3.2 3.2-3.2 3.2 1.4 3.2 3.2"></path> <path class="st0" d="m223.3 28.6c0 1.8-1.4 3.2-3.2 3.2s-3.2-1.4-3.2-3.2 1.4-3.2 3.2-3.2c1.7-0.1 3.2 1.4 3.2 3.2"></path> <path class="st0" d="m231.4 33.7c0 1.8-1.4 3.2-3.2 3.2s-3.2-1.4-3.2-3.2 1.4-3.2 3.2-3.2 3.2 1.4 3.2 3.2"></path> <path class="st0" d="m223.5 38c0 1.8-1.4 3.2-3.2 3.2s-3.2-1.4-3.2-3.2 1.4-3.2 3.2-3.2 3.2 1.4 3.2 3.2"></path> <path class="st0" d="m231.5 43.3c0 1.8-1.4 3.2-3.2 3.2s-3.2-1.4-3.2-3.2 1.4-3.2 3.2-3.2c1.7 0 3.2 1.4 3.2 3.2"></path> <path class="st0" d="m223.5 47.8c0 1.8-1.4 3.2-3.2 3.2s-3.2-1.4-3.2-3.2 1.4-3.2 3.2-3.2 3.2 1.5 3.2 3.2"></path> <path class="st0" d="m223.8 57.7c0 1.8-1.4 3.2-3.2 3.2s-3.2-1.4-3.2-3.2 1.4-3.2 3.2-3.2c1.7 0 3.2 1.4 3.2 3.2"></path> <path class="st0" d="m3.9 29l-3.9-15.2h2.1l1.8 7.7c0.5 1.9 0.9 3.8 1.1 5.3 0.2-1.5 0.7-3.3 1.2-5.3l2-7.7h2.1l1.9 7.7c0.4 1.8 0.8 3.6 1.1 5.2 0.3-1.7 0.7-3.4 1.2-5.3l2-7.7h2l-4.2 15.3h-2.1l-1.9-7.9c-0.5-2-0.8-3.5-1-5-0.2 1.5-0.6 3-1.2 5l-2.2 7.9"></path> <rect class="st0" x="29.5" y="13.8" width="2" height="15.2"></rect> <path class="st0" d="m43.9 29v-15.2h2.2l4.8 7.7c1.1 1.8 2 3.4 2.7 4.9h0.1c-0.2-2-0.2-3.9-0.2-6.2v-6.4h1.9v15.2h-2l-4.8-7.7c-1.1-1.7-2.1-3.4-2.8-5.1h-0.1c0.1 1.9 0.1 3.7 0.1 6.3v6.5"></path> <polyline class="st0" points="75.6 21.9 69.7 21.9 69.7 27.4 76.3 27.4 76.3 29 67.7 29 67.7 13.8 76 13.8 76 15.4 69.7 15.4 69.7 20.3 75.6 20.3"></polyline> <polyline class="st0" points="87.9 13.8 96.1 13.8 96.1 15.4 89.9 15.4 89.9 20.5 95.6 20.5 95.6 22.1 89.9 22.1 89.9 29 87.9 29"></polyline> <rect class="st0" x="107.9" y="13.8" width="2" height="15.2"></rect> <polyline class="st0" points="130.2 21.9 124.3 21.9 124.3 27.4 130.9 27.4 130.9 29 122.3 29 122.3 13.8 130.5 13.8 130.5 15.4 124.3 15.4 124.3 20.3 130.2 20.3"></polyline> <polyline class="st0" points="142.4 13.8 144.4 13.8 144.4 27.4 150.9 27.4 150.9 29 142.4 29"></polyline> <path class="st0" d="m162.1 14c1.2-0.2 2.6-0.3 4.2-0.3 2.8 0 4.8 0.6 6.2 1.9 1.4 1.2 2.2 3 2.2 5.5s-0.8 4.5-2.2 5.9-3.8 2.2-6.7 2.2c-1.4 0-2.6 0-3.6-0.2m1.9-1.5c0.5 0.1 1.2 0.1 2 0.1 4.2 0 6.5-2.3 6.5-6.5 0-3.6-2-5.9-6.2-5.9-1 0-1.8 0.1-2.3 0.2v12.1z"></path> <polyline class="st0" points="187.5 13.4 187.2 18.8 186 18.8 185.6 13.4"></polyline> <path class="st0" d="m214.1 11.4c0.9-4.2 5-8.6 5-8.6l-3.5-1.5s-2.5 3.6-3.4 6.1c-0.8 2.3-2 4.8-0.9 13.7 0.4 3.3 0.4 7 0.4 7s-0.8-5.5-1.5-8-2.1-5.1-3.6-6.2-4-1.8-7-0.7-3.1 1.2-4.7 1.4c-0.9 0.1-1 0.1-2.8 0 0 0.1 4.5 2.1 6.8 2.1 0 0-3.5 2.2-4.3 2.6-2.1 1.1-4.6 4.6-5.9 8.3-1 2.6-5.3 7-5.3 7s5.8 1.2 9.1 0.5c3.1-0.6 6.8-2.7 6.8-2.7-0.1 0.1-4.6 5-3.3 11.8 0.8 4.1 6.7 9 6.7 9l11.3 10-0.6-38.2c0-9.2-0.4-8.6 0.7-13.6m-12.4 17.9c-1.2 0-2.3-0.3-3.1-0.8l0.5-1.5c0.6 0.4 1.6 0.8 2.6 0.8 1.4 0 2.1-0.7 2.1-1.6s-0.6-1.5-2-2c-2-0.7-2.9-1.8-2.9-3.1 0-1.8 1.4-3.2 3.8-3.2 1.1 0 2.1 0.3 2.7 0.7l-0.5 1.4c-0.4-0.2-1.2-0.6-2.2-0.6-1.2 0-1.8 0.7-1.8 1.5 0 0.9 0.6 1.3 2.1 1.9 1.9 0.7 2.9 1.6 2.9 3.3-0.1 1.8-1.7 3.2-4.2 3.2z"></path> <path class="st0" d="m8.5 52.2c0 0.9 0 1.8 0.1 2.5h-1.7l-0.2-1.3c-0.6 0.8-1.7 1.5-3.2 1.5-2.1 0-3.2-1.5-3.2-3 0-2.5 2.2-3.9 6.2-3.8v-0.2c0-0.9-0.2-2.4-2.3-2.4-1 0-2 0.3-2.7 0.8l-0.4-1.3c0.9-0.5 2.1-0.9 3.4-0.9 3.2 0 3.9 2.2 3.9 4.2m-1.8 1.1c-2 0-4.4 0.3-4.4 2.3 0 1.2 0.8 1.8 1.7 1.8 1.4 0 2.2-0.9 2.5-1.7 0.1-0.2 0.1-0.4 0.1-0.6v-1.8z"></path> <path class="st0" d="m28.6 51.9c0 1.1 0 2 0.1 2.8h-1.7v-1.7c-0.5 0.8-1.6 1.9-3.4 1.9-1.6 0-3.6-0.9-3.6-4.5v-6h1.9v5.7c0 2 0.6 3.3 2.3 3.3 1.3 0 2.1-0.9 2.5-1.7 0.1-0.3 0.2-0.6 0.2-1v-6.3h1.9"></path> <path class="st0" d="m47.6 54.3c-0.5 0.2-1.6 0.6-3 0.6-3.1 0-5.1-2.1-5.1-5.3s2.2-5.5 5.5-5.5c1.1 0 2.1 0.3 2.6 0.6l-0.4 1.4c-0.4-0.2-1.2-0.5-2.2-0.5-2.4 0-3.6 1.8-3.6 3.9 0 2.4 1.5 3.9 3.6 3.9 1.1 0 1.8-0.3 2.3-0.5"></path> <path class="st0" d="m60.9 41.9v2.5h2.7v1.4h-2.7v5.6c0 1.3 0.4 2 1.4 2 0.5 0 0.8 0 1.1-0.1l0.1 1.4c-0.4 0.1-0.9 0.3-1.7 0.3-0.9 0-1.6-0.3-2-0.8-0.5-0.6-0.7-1.5-0.7-2.7v-5.6h-1.6v-1.4h1.5v-1.9"></path> <path class="st0" d="m75.1 42.5c-0.7 0-1.2-0.6-1.2-1.2 0-0.7 0.5-1.2 1.2-1.2s1.2 0.5 1.2 1.2c0 0.6-0.4 1.2-1.2 1.2m-0.9 12.2v-10.3h1.9v10.3h-1.9z"></path> <path class="st0" d="m91.9 54.9c-2.8 0-4.9-2-4.9-5.3 0-3.5 2.3-5.5 5.1-5.5 3 0 5 2.2 5 5.3-0.1 3.9-2.7 5.5-5.2 5.5m0.1-1.4c1.8 0 3.1-1.7 3.1-4 0-1.7-0.9-3.9-3.1-3.9s-3.2 2-3.2 4c0.1 2.2 1.3 3.9 3.2 3.9z"></path> <path class="st0" d="m107.9 47.2c0-1.1 0-1.9-0.1-2.8h1.7l0.1 1.7c0.5-1 1.7-1.9 3.4-1.9 1.4 0 3.6 0.9 3.6 4.4v6.2h-1.9v-5.9c0-1.7-0.6-3.1-2.4-3.1-1.2 0-2.2 0.9-2.5 1.9-0.1 0.2-0.1 0.6-0.1 0.9v6.2h-1.9"></path> <path class="st0" d="m129.3 49.9c0 2.5 1.6 3.6 3.5 3.6 1.3 0 2.2-0.2 2.9-0.5l0.3 1.3c-0.7 0.3-1.8 0.7-3.5 0.7-3.2 0-5.1-2.1-5.1-5.2s1.9-5.6 4.9-5.6c3.4 0 4.2 3 4.2 4.9 0 0.4 0 0.7-0.1 0.9m-1.6-1.5c0-1.2-0.5-3-2.6-3-1.9 0-2.7 1.7-2.9 3h5.5z"></path> <path class="st0" d="m148.5 49.9c0 2.5 1.6 3.6 3.5 3.6 1.3 0 2.2-0.2 2.9-0.5l0.3 1.3c-0.7 0.3-1.8 0.7-3.5 0.7-3.2 0-5.1-2.1-5.1-5.2s1.9-5.6 4.9-5.6c3.4 0 4.2 3 4.2 4.9 0 0.4 0 0.7-0.1 0.9m-1.6-1.5c0-1.2-0.5-3-2.6-3-1.9 0-2.7 1.7-2.9 3h5.5z"></path> <path class="st0" d="m166.7 47.6c0-1.2 0-2.3-0.1-3.2h1.6l0.1 2h0.1c0.5-1.4 1.6-2.3 2.9-2.3 0.2 0 0.3 0 0.5 0.1v1.8h-0.7c-1.3 0-2.3 1-2.5 2.4 0 0.3-0.1 0.6-0.1 0.9v5.5h-1.9"></path> <path class="st0" d="m181.9 52.8c0.6 0.3 1.6 0.7 2.5 0.7 1.3 0 2-0.7 2-1.5 0-0.9-0.5-1.4-1.9-1.9-1.9-0.7-2.7-1.7-2.7-2.9 0-1.7 1.4-3 3.6-3 1 0 2 0.3 2.5 0.6l-0.4 1.3c-0.4-0.2-1.2-0.6-2.1-0.6-1.1 0-1.7 0.6-1.7 1.4 0 0.9 0.6 1.3 1.9 1.8 1.8 0.7 2.7 1.6 2.7 3.1 0 1.8-1.4 3.1-3.8 3.1-1.1 0-2.2-0.3-2.9-0.7"></path> </svg>